<svg xmlns="http://www.w3.org/2000/svg" version="1.1" xmlns:xlink="http://www.w3.org/1999/xlink" xmlns:svgjs="http://svgjs.com/svgjs" width="1440" height="560" preserveAspectRatio="none" viewBox="0 0 1440 560"><g mask="url(&quot;#SvgjsMask1002&quot;)" fill="none"><rect width="1440" height="560" x="0" y="0" fill="url(#SvgjsLinearGradient1003)"></rect><path d="M1440 0L1384.21 0L1440 157.28z" fill="rgba(255, 255, 255, .1)"></path><path d="M1384.21 0L1440 157.28L1440 244.43L713.8000000000001 0z" fill="rgba(255, 255, 255, .075)"></path><path d="M713.8000000000001 0L1440 244.43L1440 302.39L375.56000000000006 0z" fill="rgba(255, 255, 255, .05)"></path><path d="M375.55999999999995 0L1440 302.39L1440 308.43L360.7099999999999 0z" fill="rgba(255, 255, 255, .025)"></path><path d="M0 560L279.02 560L0 402.33000000000004z" fill="rgba(0, 0, 0, .1)"></path><path d="M0 402.33000000000004L279.02 560L675.9 560L0 214.22000000000003z" fill="rgba(0, 0, 0, .075)"></path><path d="M0 214.22000000000003L675.9 560L1108.73 560L0 176.01000000000002z" fill="rgba(0, 0, 0, .05)"></path><path d="M0 176.01000000000005L1108.73 560L1233.94 560L0 59.550000000000054z" fill="rgba(0, 0, 0, .025)"></path></g><defs><mask id="SvgjsMask1002"><rect width="1440" height="560" fill="#ffffff"></rect></mask><linearGradient x1="15.28%" y1="-39.29%" x2="84.72%" y2="139.29%" gradientUnits="userSpaceOnUse" id="SvgjsLinearGradient1003"><stop stop-color="#0e2a47" offset="0"></stop><stop stop-color="#00459e" offset="1"></stop></linearGradient></defs></svg>