<svg xmlns="http://www.w3.org/2000/svg" version="1.1" xmlns:xlink="http://www.w3.org/1999/xlink" xmlns:svgjs="http://svgjs.com/svgjs" width="1440" height="560" preserveAspectRatio="none" viewBox="0 0 1440 560"><g mask="url(&quot;#SvgjsMask1000&quot;)" fill="none"><rect width="1440" height="560" x="0" y="0" fill="#0e2a47"></rect><path d="M0,366.739C67.446,364.722,106.869,291.077,164.301,255.658C223.209,219.328,310.412,217.785,341.661,156.031C372.86,94.374,319.83,23.495,316.71,-45.536C313.123,-124.911,362.623,-210.728,322.001,-279.015C281.182,-347.634,191.904,-371.262,113.617,-386.944C39.6,-401.771,-41.525,-402.256,-107.169,-364.985C-168.38,-330.231,-184.275,-252.344,-224.804,-194.794C-260.336,-144.34,-310.749,-105.94,-330.719,-47.55C-353.377,18.7,-377.215,95.369,-345.368,157.724C-313.598,219.929,-230.499,229.515,-170.742,265.68C-112.991,300.63,-67.473,368.757,0,366.739" fill="#0b2239"></path><path d="M1440 1071.349C1555.251 1100.142 1689.723 1168.222 1787.873 1101.301 1886.57 1034.007 1861.546 881.3389999999999 1889.138 765.114 1911.105 672.585 1927 583.985 1933.213 489.087 1941.0819999999999 368.897 1995.892 236.154 1930.3899999999999 135.075 1864.8029999999999 33.86500000000001 1728.726-12.716999999999985 1608.123-12.572999999999979 1496.481-12.440000000000055 1413.792 82.97000000000003 1315.446 135.80900000000003 1239.65 176.53199999999998 1167.695 214.058 1096.465 262.325 999.096 328.304 849.58 356.927 820.824 470.976 792.689 582.565 897.025 684.63 966.94 776.039 1025.341 852.394 1106.835 900.624 1188.38 951.529 1268.812 1001.739 1348.009 1048.367 1440 1071.349" fill="#113255"></path></g><defs><mask id="SvgjsMask1000"><rect width="1440" height="560" fill="#ffffff"></rect></mask></defs></svg>